<svg width="22" height="22" viewBox="0 0 22 22" fill="none" xmlns="http://www.w3.org/2000/svg">
<path d="M20.9 0H4.76665C4.1433 0 3.66665 0.476652 3.66665 1.1V11.7333H0.366652C0.146652 11.7333 0 11.88 0 12.1V19.8C0 21.01 0.99 22 2.2 22H19.8C21.01 22 22 21.01 22 19.8V1.1C22 0.476652 21.5233 0 20.9 0ZM0.733348 19.8V12.4667H3.6667V19.8C3.6667 20.6067 3.0067 21.2667 2.20004 21.2667C1.39339 21.2667 0.733348 20.6067 0.733348 19.8ZM21.2667 19.8C21.2667 20.6067 20.6067 21.2667 19.8 21.2667H3.85C3.92086 21.1798 3.98604 21.0885 4.04512 20.9933C4.25133 20.6763 4.37852 20.3039 4.39738 19.904C4.3991 19.8695 4.40004 19.8348 4.40004 19.8V1.1C4.40004 0.88 4.5467 0.733348 4.7667 0.733348H20.9C21.12 0.733348 21.2667 0.88 21.2667 1.1V19.8Z" fill="black"/>
<path d="M19.8 3.66656H5.86665C5.64665 3.66656 5.5 3.81321 5.5 4.03321V9.53321C5.5 9.75321 5.64665 9.89986 5.86665 9.89986H19.8C20.02 9.89986 20.1667 9.75321 20.1667 9.53321V4.03321C20.1667 3.81325 20.02 3.66656 19.8 3.66656ZM19.4333 9.16656H6.23335V4.3999H19.4333V9.16656ZM19.8 1.83325H5.86665C5.64665 1.83325 5.5 1.9799 5.5 2.1999C5.5 2.4199 5.64665 2.56656 5.86665 2.56656H19.8C20.02 2.56656 20.1667 2.4199 20.1667 2.1999C20.1667 1.9799 20.02 1.83325 19.8 1.83325ZM5.86665 14.2999H8.06665C8.28665 14.2999 8.43331 14.1533 8.43331 13.9333V11.7333C8.43331 11.5133 8.28665 11.3666 8.06665 11.3666H5.86665C5.64665 11.3666 5.5 11.5133 5.5 11.7333V13.9333C5.5 14.1533 5.64665 14.2999 5.86665 14.2999ZM6.23335 12.0999H7.7V13.5666H6.23335V12.0999ZM5.86665 18.3333H8.06665C8.28665 18.3333 8.43331 18.1866 8.43331 17.9666V15.7666C8.43331 15.5466 8.28665 15.3999 8.06665 15.3999H5.86665C5.64665 15.3999 5.5 15.5466 5.5 15.7666V17.9666C5.5 18.1866 5.64665 18.3333 5.86665 18.3333ZM6.23335 16.1333H7.7V17.5999H6.23335V16.1333ZM19.8 11.3666H9.9C9.68 11.3666 9.53335 11.5132 9.53335 11.7332C9.53335 11.9532 9.68 12.0999 9.9 12.0999H19.8C20.02 12.0999 20.1667 11.9532 20.1667 11.7332C20.1667 11.5133 20.02 11.3666 19.8 11.3666ZM9.9 13.9333H13.5667C13.7867 13.9333 13.9333 13.7866 13.9333 13.5666C13.9333 13.3466 13.7867 13.1999 13.5667 13.1999H9.9C9.68 13.1999 9.53335 13.3466 9.53335 13.5666C9.53335 13.7866 9.68 13.9333 9.9 13.9333ZM19.8 15.3999H9.9C9.68 15.3999 9.53335 15.5466 9.53335 15.7666C9.53335 15.9866 9.68 16.1332 9.9 16.1332H19.8C20.02 16.1332 20.1667 15.9866 20.1667 15.7666C20.1667 15.5466 20.02 15.3999 19.8 15.3999ZM13.5667 17.9666C13.7867 17.9666 13.9333 17.8199 13.9333 17.5999C13.9333 17.3799 13.7867 17.2333 13.5667 17.2333H9.9C9.68 17.2333 9.53335 17.3799 9.53335 17.5999C9.53335 17.8199 9.68 17.9666 9.9 17.9666H13.5667ZM19.8 19.4333H5.86665C5.64665 19.4333 5.5 19.5799 5.5 19.7999C5.5 20.0199 5.64665 20.1666 5.86665 20.1666H19.8C20.02 20.1666 20.1667 20.0199 20.1667 19.7999C20.1667 19.5799 20.02 19.4333 19.8 19.4333Z" fill="black"/>
</svg>
