<?xml version="1.0" encoding="utf-8"?>
<!-- Generator: Adobe Illustrator 24.1.0, SVG Export Plug-In . SVG Version: 6.00 Build 0)  -->
<svg version="1.1" id="Layer_1" xmlns="http://www.w3.org/2000/svg" xmlns:xlink="http://www.w3.org/1999/xlink" x="0px" y="0px"
	 width="512px" height="512px" viewBox="0 0 512 512" style="enable-background:new 0 0 512 512;" xml:space="preserve">
<style type="text/css">
	.st0{fill:#FFC83D;}
	.st1{fill:#373737;}
</style>
<path class="st0" d="M256,115.5c19.3,0,35-15.9,35-35.5s-15.7-35.5-35-35.5S221,60.4,221,80C221.1,99.6,236.7,115.4,256,115.5z"/>
<path class="st1" d="M168,96h32v16h-32V96z"/>
<path class="st1" d="M312,96h24v16h-24V96z"/>
<path class="st1" d="M456,208c4.4,0,8-3.6,8-8v-24h8c4.4,0,8-3.6,8-8v-24h8c4.4,0,8-3.6,8-8v-32c0-3.4-2.1-6.5-5.4-7.6l-232-80
	c-1.7-0.6-3.6-0.6-5.3,0l-232,80c-3.2,1.1-5.4,4.2-5.4,7.6v32c0,4.4,3.6,8,8,8h8v24c0,4.4,3.6,8,8,8h8v24c0,4.4,3.6,8,8,8h8v208h-8
	c-4.4,0-8,3.6-8,8v24H24c-4.4,0-8,3.6-8,8v32c0,4.4,3.6,8,8,8h464c4.4,0,8-3.6,8-8v-32c0-4.4-3.6-8-8-8h-24v-24c0-4.4-3.6-8-8-8h-8
	V208H456z M32,128v-18.3l224-77.2l224,77.2V128H32z M48,160v-16h416v16H48z M400,416h-16V208h48v208h-16 M448,432v16h-80v-16H448z
	 M368,416h-8c-4.4,0-8,3.6-8,8v24h-40v-24c0-4.4-3.6-8-8-8h-8V208h8c4.4,0,8-3.6,8-8v-24h40v24c0,4.4,3.6,8,8,8h8V416z M152,416h-8
	V208h8c4.4,0,8-3.6,8-8v-24h40v24c0,4.4,3.6,8,8,8h8v208h-8c-4.4,0-8,3.6-8,8v24h-40v-24C160,419.6,156.4,416,152,416z M96,416H80
	V208h48v208h-16 M64,192v-16h80v16H64z M216,432h80v16h-80V432z M248,416h-16V208h48v208h-16 M216,192v-16h80v16H216z M64,432h80v16
	H64V432z M480,464v16H32v-16H480z M368,192v-16h80v16H368z"/>
<g>
	<path class="st1" d="M-174.6,495.8L-174.6,495.8c0-0.1,0-0.2,0-0.3"/>
</g>
<polyline class="st0" points="96,416 80,416 80,208 128,208 128,416 112,416 "/>
<polyline class="st0" points="248,416 232,416 232,208 280,208 280,416 264,416 "/>
<polyline class="st0" points="400,416 384,416 384,208 432,208 432,416 416,416 "/>
</svg>
