<?xml version="1.0" encoding="utf-8"?>
<!-- Generator: Adobe Illustrator 24.0.3, SVG Export Plug-In . SVG Version: 6.00 Build 0)  -->
<svg version="1.1" id="Capa_1" xmlns="http://www.w3.org/2000/svg" xmlns:xlink="http://www.w3.org/1999/xlink" x="0px" y="0px"
	 width="512px" height="512px" viewBox="0 0 512 512" style="enable-background:new 0 0 512 512;" xml:space="preserve">
<style type="text/css">
	.st0{fill:#373737;}
	.st1{fill:#E50000;}
	.st2{fill:#FFC83D;}
</style>
<g>
	<path class="st0" d="M215.1,409.2v-20c0-0.1,0-0.2,0-0.2c-0.4-15.5-0.7-31.5-5.2-48.1c-10.1-37.9-32.1-58.8-73.4-70l-0.7-0.2
		c-1.2-0.3-2.6-0.7-3.1-0.9c-0.2-0.2-0.7-0.8-1.8-2.6l-26-42.2c-5-8.1-12.8-13.5-21.4-15.5l-6.2-80.6c-1.5-18.8-16-33-33.7-33
		c-18,0-32.5,14.2-33.8,33.1L0.1,271.5c0,0.1,0,0.2,0,0.3C-1.3,309.5,12,321.5,32,339.7l0.4,0.4c2.5,2.3,5.5,4.8,8.7,7.5
		c17.4,14.8,43.6,37.3,43.6,58.9v2.7c-10.1,3.3-17.4,12.7-17.4,23.9v36.3c0,13.8,11.3,25.1,25.1,25.1H202c5.5,0,10-4.5,10-10
		c0-5.5-4.5-10-10-10H92.4c-2.8,0-5.1-2.3-5.1-5.1v-36.3c0-2.8,2.3-5.1,5.1-5.1h115c2.8,0,5.1,2.3,5.1,5.1v36.3
		c0,2.8-2.3,5.1-5.1,5.1h-12.6c-5.5,0-10,4.5-10,10c0,5.5,4.5,10,10,10h12.6c13.8,0,25.1-11.3,25.1-25.1v-36.3
		C232.6,422,225.2,412.5,215.1,409.2L215.1,409.2z M195.1,408h-90.4v-1.5c0-30.8-30.5-56.9-50.6-74.1c-3-2.6-5.9-5.1-8.2-7.2
		l-0.4-0.4C26.8,308,19.1,301,20.1,272.7l9.6-142.4c0.6-8.2,6.5-14.4,13.8-14.4c8.3,0,13.2,7.4,13.8,14.6l6.2,80.2
		c-2.1,0.8-4.2,1.8-6.2,3c-16.3,10-21.3,31.4-11.3,47.6l42.2,68.5c2.9,4.7,9.1,6.2,13.8,3.3s6.2-9.1,3.3-13.8L63,250.8
		c-4.2-6.9-2.1-15.9,4.8-20.1c6.9-4.2,15.9-2.1,20.1,4.8l26,42.2c5.2,8.5,9.1,10.3,16.7,12.3l0.7,0.2c39.7,10.7,52.4,30.1,59.3,55.8
		c3.8,14.3,4.2,29.1,4.5,43.3L195.1,408L195.1,408z"/>
	<path class="st0" d="M511.9,271.8c0-0.1,0-0.2,0-0.3l-9.6-142.6c-1.3-18.8-15.8-33.1-33.8-33.1c-17.7,0-32.2,14.2-33.7,33
		l-6.2,80.5c-8.6,2.1-16.4,7.4-21.4,15.5L381,267.2c-1.1,1.8-1.6,2.4-1.8,2.6c-0.5,0.2-1.9,0.6-3.1,0.9l-0.7,0.2
		c-41.3,11.1-63.3,32.1-73.4,70c-4.4,16.7-4.8,32.7-5.2,48.1c0,0.1,0,0.2,0,0.2v20c-10.1,3.3-17.4,12.7-17.4,23.9v36.3
		c0,13.8,11.3,25.1,25.1,25.1h115c13.8,0,25.1-11.3,25.1-25.1v-36.3c0-11.2-7.3-20.6-17.4-23.9v-2.7c0-21.6,26.2-44.1,43.6-58.9
		c3.2-2.7,6.1-5.3,8.7-7.5l0.4-0.4C500,321.5,513.3,309.5,511.9,271.8L511.9,271.8z M424.7,469.4c0,2.8-2.3,5.1-5.1,5.1h-115
		c-2.8,0-5.1-2.3-5.1-5.1v-36.3c0-2.8,2.3-5.1,5.1-5.1h115c2.8,0,5.1,2.3,5.1,5.1V469.4z M466.5,324.9l-0.4,0.4
		c-2.3,2.1-5.2,4.6-8.2,7.2c-20.2,17.2-50.6,43.3-50.6,74.1v1.5h-90.4v-18.7c0.3-14.3,0.7-29,4.5-43.3c6.9-25.8,19.6-45.1,59.3-55.8
		l0.6-0.2c7.6-2.1,11.5-3.8,16.7-12.3l26.1-42.3c2.9-4.7,8.1-7.2,13.2-6.9c0,0,0,0,0,0c2.4,0.1,4.7,0.8,6.9,2.1
		c3.3,2,5.6,5.3,6.6,9.1c0.9,3.8,0.3,7.7-1.8,11l-42.2,68.5c-2.9,4.7-1.4,10.9,3.3,13.8c4.7,2.9,10.9,1.4,13.8-3.3l42.2-68.5
		c4.8-7.8,6.3-17.1,4.2-26.1c-2.1-9-7.7-16.7-15.5-21.5c-2-1.2-4.1-2.2-6.2-3l6.2-80.1c0.6-7.2,5.5-14.6,13.8-14.6
		c7.3,0,13.3,6.2,13.9,14.4l9.6,142.4C492.9,301,485.2,308,466.5,324.9L466.5,324.9z"/>
	<path class="st1" d="M375.6,170.1c34.7-35.9,34.7-94.3,0-130.2c-14.8-15.3-35-23.2-57.1-22.3c-20.9,0.9-41.1,9.4-56.8,24.1l-1.1,1
		c-1.6,1.5-3.3,3.1-4.7,4.3c-1.3-1.2-3.1-2.8-4.7-4.3l-1-1c-15.7-14.7-35.9-23.3-56.8-24.2c-22-0.9-42.3,7-57.1,22.3
		c-34.7,35.9-34.7,94.3,0,130.2c0.1,0.1,0.2,0.2,0.2,0.2l112.4,108.4c1.9,1.9,4.4,2.8,6.9,2.8s5-0.9,6.9-2.8l112.4-108.4
		C375.4,170.3,375.5,170.2,375.6,170.1L375.6,170.1z M193.9,197.7"/>
</g>
<path class="st2" d="M195.1,408h-90.4v-1.5c0-30.8-30.5-56.9-50.6-74.1c-3-2.6-5.9-5.1-8.2-7.2l-0.4-0.4
	C26.8,308,19.1,301,20.1,272.7l9.6-142.4c0.6-8.2,6.5-14.4,13.8-14.4c8.3,0,13.2,7.4,13.8,14.6l6.2,80.2c-2.1,0.8-4.2,1.8-6.2,3
	c-16.3,10-21.3,31.4-11.3,47.6l42.2,68.5c2.9,4.7,9.1,6.2,13.8,3.3s6.2-9.1,3.3-13.8L63,250.8c-4.2-6.9-2.1-15.9,4.8-20.1
	c6.9-4.2,15.9-2.1,20.1,4.8l26,42.2c5.2,8.5,9.1,10.3,16.7,12.3l0.7,0.2c39.7,10.7,52.4,30.1,59.3,55.8c3.8,14.3,4.2,29.1,4.5,43.3
	L195.1,408L195.1,408z"/>
<path class="st2" d="M466.5,324.9l-0.4,0.4c-2.3,2.1-5.2,4.6-8.2,7.2c-20.2,17.2-50.6,43.3-50.6,74.1v1.5h-90.4v-18.7
	c0.3-14.3,0.7-29,4.5-43.3c6.9-25.8,19.6-45.1,59.3-55.8l0.6-0.2c7.6-2.1,11.5-3.8,16.7-12.3l26.1-42.3c2.9-4.7,8.1-7.2,13.2-6.9
	c0,0,0,0,0,0c2.4,0.1,4.7,0.8,6.9,2.1c3.3,2,5.6,5.3,6.6,9.1c0.9,3.8,0.3,7.7-1.8,11l-42.2,68.5c-2.9,4.7-1.4,10.9,3.3,13.8
	c4.7,2.9,10.9,1.4,13.8-3.3l42.2-68.5c4.8-7.8,6.3-17.1,4.2-26.1c-2.1-9-7.7-16.7-15.5-21.5c-2-1.2-4.1-2.2-6.2-3l6.2-80.1
	c0.6-7.2,5.5-14.6,13.8-14.6c7.3,0,13.3,6.2,13.9,14.4l9.6,142.4C492.9,301,485.2,308,466.5,324.9L466.5,324.9z"/>
</svg>
