<?xml version="1.0" encoding="utf-8"?>
<!-- Generator: Adobe Illustrator 26.0.2, SVG Export Plug-In . SVG Version: 6.00 Build 0)  -->
<svg version="1.1" id="Layer_1" xmlns="http://www.w3.org/2000/svg" xmlns:xlink="http://www.w3.org/1999/xlink" x="0px" y="0px"
	 viewBox="0 0 509 331" style="enable-background:new 0 0 509 331;" xml:space="preserve">
<style type="text/css">
	.st0{fill:#373737;}
	.st1{fill:#FFFFFF;}
	.st2{fill:#FFC83D;}
</style>
<g>
	<path class="st0" d="M-174.6,422.8L-174.6,422.8c0-0.1,0-0.2,0-0.3"/>
</g>
<g>
	<g>
		<path class="st1" d="M377.3,319.7c0,0,98.6,1,106,0c7.3-1,16.4-20.9,13.1-40.7c-3.2-19.8-38.9-86.9-47.9-106.7
			c-5.3-11.6-33-13.9-57.8-30.9c1.6-12.4,2.4-24.3,2.8-32.9c0-1.3,0.1-2.5,0.1-3.8c0-7.5-1.4-15.4-3.9-23.3c0-0.6,0-1,0-1
			s-0.1-0.1-0.4-0.4c-12-36.8-46.3-73.9-69-73.9c-27,0-73.4,55.8-73.4,98.6c0,1.3,0,2.5,0.1,3.8c0.3,7.2,1.3,18.4,3.1,30.6
			c-25.7,17.7-55.8,21.1-61.3,33.3c-9,19.8-44.6,86.9-47.9,106.7c-3.3,19.8,5.7,39.7,13.1,40.7c7.4,1,106,0,106,0L377.3,319.7z"/>
		<g>
			<path class="st0" d="M275.5,80.9c0,22.9,6,46.9,10.9,57.5c4.7,10.7,18.2,32.9,37.5,32.9c17,0,33.2-20.6,38.5-34.4
				c8.6-22.4,9.4-59,9.4-59S344.4,54,318.8,56.3C293.3,58.3,275.5,80.9,275.5,80.9z"/>
		</g>
		<path class="st0" d="M506.2,279.8c-2.6-15.6-22.5-55.8-37.2-85.3c-4.7-9.6-8.8-17.9-11.2-22.9c-3.8-8.3-13.9-12.3-26.8-17.2
			c-9.4-3.7-19.9-7.8-30.2-14.2c1.1-9.3,1.9-19.3,2.4-29.8c0.1-1.5,0.1-2.8,0.1-4c0-7.4-1.3-15.6-3.9-24.1l0.1-2.7l-1.3-1.2
			c-6.1-18-17.4-36.6-31.2-51.5c-20.3-21.8-35.5-25-42.8-25c-17.6,0-38,18.3-51.4,35.4c-17.3,22.4-27.8,48.1-27.8,68.8
			c0,1.2,0,2.5,0.1,4c0.3,7.6,1.3,17.7,2.7,27.5c-10.6,6.7-21.7,11.1-31.6,15.1c-13.9,5.6-24.9,10-28.9,18.6
			c-2.3,5.1-6.5,13.4-11.2,23.1c-14.5,29.4-34.5,69.6-37.1,85.1c-2.8,16.6,2.3,32.6,8.2,40.5c3,4.1,6.4,6.4,9.9,6.8
			c2.7,0.3,16.2,0.4,32.7,0.4c29.1,0,67.6-0.3,74.1-0.4h4.5h108.1h4.5c10.1,0.1,99.2,1,106.7,0c3.6-0.4,6.9-2.8,9.9-6.8
			C504,312.4,508.9,296.3,506.2,279.8z M431.6,195.7L422,306.1c-0.4,5.2-4.7,9-9.9,9H242.2c-5.2,0-9.4-3.9-9.9-9l-9.6-110.4
			c-0.2-2.8,0.6-5.5,2.6-7.5c1.9-2,4.5-3.2,7.3-3.2h189c2.8,0,5.4,1.2,7.3,3.2S431.8,192.9,431.6,195.7z M486.6,315.7
			c-3.6,0.4-28.9,0.4-56.5,0.3c1.6-2.7,2.6-5.7,2.9-8.9l3.4-40l19.7,5c0.4,0.1,1,0.2,1.4,0.2c2.6,0,5-1.7,5.6-4.3
			c0.8-3.1-1.1-6.1-4.2-7l-21.4-5.4l5.2-58.8c0.5-5.8-1.5-11.6-5.4-15.9c-4-4.3-9.6-6.8-15.4-6.8H232.7c-5.8,0-11.5,2.5-15.4,6.8
			c-4,4.3-5.9,10.1-5.4,15.9l5.3,60.5L195,260c-3.1,0.4-5.4,3.2-5.1,6.4c0.3,2.9,2.8,5.1,5.7,5.1c0.2,0,0.4,0,0.6,0l21.8-2.6
			l3.3,38.3c0.3,3.2,1.3,6.4,2.9,8.9c-30.9,0.2-61.4,0.2-65.3-0.2c-3.3-1.3-11.2-16.7-8.3-34c2.3-13.9,22.6-54.8,36.1-81.9
			c4.8-9.8,9-18.2,11.4-23.4c2-4.4,12.1-8.5,22.6-12.7c10.8-4.3,24.2-9.7,36.7-18.2l2.9-2l-0.5-3.6c-1.5-10.6-2.7-21.8-3-29.9
			c-0.1-1.4-0.1-2.5-0.1-3.6c0-18.2,9.5-41.4,25.3-61.8c14.4-18.5,31.3-31,42.2-31c9,0,22,8,34.4,21.3
			c13.1,14.1,23.8,31.8,29.2,48.7l0.1,0.3l0,0l0.3,0.9c2.4,7.8,3.7,15,3.7,21.7c0,1.1,0,2.3-0.1,3.6c-0.5,11.5-1.5,22.4-2.8,32.4
			l-0.4,3.4l2.9,1.9c12.2,8.4,25.1,13.4,35.4,17.3c9.6,3.7,18.6,7.2,20.5,11.3c2.4,5.2,6.6,13.6,11.3,23.3
			c13.5,27.1,33.8,68.2,36.1,82.1l0,0C497.7,299,489.9,314.4,486.6,315.7z"/>
	</g>
	<g>
		<polygon class="st1" points="139.4,85.4 179.3,142.3 158.5,271.1 114.1,272.8 97.9,126.9 		"/>
		<path class="st2" d="M133,59.5L4.7,277c-2.3,3.8,0.5,8.5,4.8,8.5l256.7-1.6c4.3,0,7-4.7,4.8-8.5L142.8,59.5
			C140.6,55.8,135.3,55.8,133,59.5z M138,262.2c-7.1,0-12.8-5.4-12.8-12.2s5.7-12.3,12.8-12.3c7.1,0,12.8,5.4,12.8,12.2
			C150.9,256.6,145.1,262.2,138,262.2z M138,226.5c-6.5,0.1-12.8-6.7-13.9-14.8l-8.6-71.5c-2.2-17.6,8.6-32.5,22.5-32.6
			c13.9-0.1,23.5,14.5,22.5,32c0,0.1,0,0.2,0,0.4l-8.5,71.5C150.9,219.7,145.5,226.4,138,226.5z"/>
	</g>
</g>
</svg>
